<svg xmlns="http://www.w3.org/2000/svg" width="329.168" height="107.669" viewBox="0 0 329.168 107.669"><defs><style>.a{fill:#fff;}.b{fill:#bdcf00;}.c{fill:#808384;}</style></defs><g transform="translate(-796 -5012)"><g transform="translate(746.892 4973.25)"><path class="a" d="M108.842,131.95l10.7-10.4,14.425,0-25.492,24.871-.991-.991L49.108,87.449,98.069,38.76h0l14.829-.008L63.788,87.519l45.026,44.4Z"/><path class="a" d="M185.667,91.392v11.371h21.724V113.2H173.024V60.164h34.452L205.863,70.6h-20.2V81.973h18.584v9.419Z"/><path class="a" d="M216.9,113.2V60.164h12.643v42.6h17.9V113.2Z"/><path class="a" d="M253.977,113.2V60.164H266.62v42.6h17.9V113.2Z"/><path class="a" d="M303.7,91.392v11.371h21.724V113.2H291.059V60.164h34.452L323.9,70.6H303.7V81.973h18.584v9.419Z"/><path class="a" d="M377.7,113.2l-9.053-19.012a10.981,10.981,0,0,0,2.9-2.16q3.861-4.114,3.861-13.11a28.76,28.76,0,0,0-1.739-10.989,11.09,11.09,0,0,0-5.6-5.94,24.153,24.153,0,0,0-10.226-1.825H334.93V113.2h12.643V96.143h8.406l8.056,17.057ZM347.573,70.6H357.5a6.142,6.142,0,0,1,3.607.764,3.387,3.387,0,0,1,.976,2.8v8.91a3.383,3.383,0,0,1-.976,2.8,6.134,6.134,0,0,1-3.607.764h-9.928Z"/><path class="a" d="M167.533,59.937H146.809l-6.525,7.974L119.653,93.32V112.9H136.8V96.542L148.079,112.9h20.407L148.873,84.155Z"/><path class="b" d="M119.653,38.751l0,46.275,38.427-46.273Z"/><path class="c" d="M145.225,137.634v-15.64h4.619a6,6,0,0,1,3.813,1.037,3.677,3.677,0,0,1,1.3,3.058,3.461,3.461,0,0,1-.661,2.112,3.608,3.608,0,0,1-1.809,1.285,3.79,3.79,0,0,1,3.029,3.747,4.063,4.063,0,0,1-1.338,3.236,5.48,5.48,0,0,1-3.722,1.165Zm1.321-8.626h3.609a4.047,4.047,0,0,0,2.562-.78,2.663,2.663,0,0,0,.908-2.18,2.611,2.611,0,0,0-.94-2.221,4.655,4.655,0,0,0-2.841-.716h-3.3Zm0,1.118v6.391h3.964a3.96,3.96,0,0,0,2.69-.863,3,3,0,0,0,1-2.4,2.9,2.9,0,0,0-.952-2.29,3.821,3.821,0,0,0-2.626-.841Z"/><path class="c" d="M167.078,136.517H174.8v1.117h-9.056v-15.64h1.332Z"/><path class="c" d="M193.014,130.136H185.7v6.381h8.412v1.117h-9.733v-15.64h9.679v1.117H185.7v5.908h7.316Z"/><path class="c" d="M215.007,132.757a5.611,5.611,0,0,1-1.768,3.782,5.843,5.843,0,0,1-3.99,1.31,5.52,5.52,0,0,1-3.078-.87,5.669,5.669,0,0,1-2.067-2.466,8.738,8.738,0,0,1-.741-3.646v-2.031a8.861,8.861,0,0,1,.73-3.695,5.622,5.622,0,0,1,2.1-2.487,5.731,5.731,0,0,1,3.153-.875,5.6,5.6,0,0,1,3.969,1.353,5.678,5.678,0,0,1,1.692,3.749h-1.332q-.5-3.985-4.329-3.985a4.1,4.1,0,0,0-3.39,1.591,6.9,6.9,0,0,0-1.261,4.4V130.8a6.961,6.961,0,0,0,1.229,4.323,3.963,3.963,0,0,0,3.325,1.612,4.4,4.4,0,0,0,3.126-.994,4.764,4.764,0,0,0,1.3-2.981Z"/><path class="c" d="M236.85,137.634h-1.332v-7.5H226.58v7.5h-1.321v-15.64h1.321v7.025h8.938v-7.025h1.332Z"/><path class="c" d="M258.165,123.111H252.8v14.523h-1.321V123.111h-5.35v-1.117h12.031Z"/><path class="c" d="M276.366,130.136h-7.315v6.381h8.411v1.117H267.73v-15.64h9.678v1.117h-8.357v5.908h7.315Z"/><path class="c" d="M298.36,132.757a5.611,5.611,0,0,1-1.768,3.782,5.843,5.843,0,0,1-3.99,1.31,5.518,5.518,0,0,1-3.078-.87,5.671,5.671,0,0,1-2.068-2.466,8.769,8.769,0,0,1-.741-3.646v-2.031a8.846,8.846,0,0,1,.731-3.695,5.62,5.62,0,0,1,2.1-2.487,5.733,5.733,0,0,1,3.153-.875,5.6,5.6,0,0,1,3.969,1.353,5.679,5.679,0,0,1,1.693,3.749h-1.332q-.5-3.985-4.33-3.985a4.1,4.1,0,0,0-3.389,1.591,6.9,6.9,0,0,0-1.262,4.4V130.8a6.955,6.955,0,0,0,1.23,4.323,3.962,3.962,0,0,0,3.325,1.612,4.4,4.4,0,0,0,3.126-.994,4.765,4.765,0,0,0,1.3-2.981Z"/><path class="c" d="M320.2,137.634H318.87v-7.5h-8.937v7.5h-1.321v-15.64h1.321v7.025h8.937v-7.025H320.2Z"/><path class="c" d="M342.862,137.634H341.54l-8.991-13.384v13.384h-1.332v-15.64h1.332l9,13.4v-13.4h1.311Z"/><path class="c" d="M355.488,137.634h-1.322v-15.64h1.322Z"/><path class="c" d="M370.294,129.868l-2.2,2.17v5.6h-1.321v-15.64h1.321v8.432l8.014-8.432h1.665l-6.553,6.961,7.058,8.679h-1.612Z"/></g></g></svg>